<svg viewBox="0 0 32 32" fill="none" xmlns="http://www.w3.org/2000/svg">
    <path
        d="M9.33336 9.33334H22.6667V11.72C22.6667 12.32 23.3867 12.6133 23.8 12.1867L27.52 8.46667C27.7867 8.2 27.7867 7.78667 27.52 7.52L23.8 3.8C23.3867 3.38667 22.6667 3.68 22.6667 4.28V6.66667H8.00003C7.2667 6.66667 6.6667 7.26667 6.6667 8V13.3333C6.6667 14.0667 7.2667 14.6667 8.00003 14.6667C8.73336 14.6667 9.33336 14.0667 9.33336 13.3333V9.33334ZM22.6667 22.6667H9.33336V20.28C9.33336 19.68 8.61336 19.3867 8.20003 19.8133L4.48003 23.5333C4.21336 23.8 4.21336 24.2133 4.48003 24.48L8.20003 28.2C8.61336 28.6133 9.33336 28.32 9.33336 27.72V25.3333H24C24.7334 25.3333 25.3334 24.7333 25.3334 24V18.6667C25.3334 17.9333 24.7334 17.3333 24 17.3333C23.2667 17.3333 22.6667 17.9333 22.6667 18.6667V22.6667Z" />
</svg>