<svg viewBox="0 0 32 32" fill="none" xmlns="http://www.w3.org/2000/svg">
    <path
        d="M24 9.33335H21.3334C20.6 9.33335 20 9.93335 20 10.6667V13.3334C20 14.0667 20.6 14.6667 21.3334 14.6667V17.3334H17.3334V6.66669H18.6667C19.2134 6.66669 19.5334 6.04002 19.2 5.60002L16.5334 2.04002C16.2667 1.68002 15.7334 1.68002 15.4667 2.04002L12.8 5.60002C12.4667 6.04002 12.7867 6.66669 13.3334 6.66669H14.6667V17.3334H10.6667V14.5734C11.7734 13.9867 12.5067 12.76 12.1867 11.3334C11.96 10.3067 11.16 9.46669 10.16 9.18669C8.20002 8.64002 6.40002 10.12 6.40002 12C6.40002 13.1334 7.06669 14.08 8.00002 14.5734V17.3334C8.00002 18.8 9.20002 20 10.6667 20H14.6667V24.0667C13.52 24.6667 12.8134 25.96 13.16 27.3867C13.4 28.3867 14.2134 29.2267 15.2134 29.4934C17.16 30.0134 18.9467 28.56 18.9467 26.6667C18.9467 25.5334 18.2934 24.56 17.3467 24.0667V20H21.3467C22.8134 20 24.0134 18.8 24.0134 17.3334V14.6667C24.7467 14.6667 25.3467 14.0667 25.3467 13.3334V10.6667C25.3334 9.93335 24.7334 9.33335 24 9.33335Z" />
</svg>